<svg xmlns ="http://www.w3.org/2000/svg">
<line x1 ="68" y1 ="132" x2 ="132" y2 ="132" stroke-width ="2px" stroke ="black"/>
<line x1 ="100" y1 ="100" x2 ="100" y2 ="132" stroke ="black"/>
<line x1 ="69" y1 ="132" x2 ="69" y2 ="164" stroke ="black"/>
<line x1 ="131" y1 ="132" x2 ="131" y2 ="164" stroke ="black"/>
<circle cx ="69" cy ="186" r ="22" fill ="black"/>
<line x1 ="112" y1 ="186" x2 ="150" y2 ="186" stroke-width ="2px" stroke ="black"/>
<line x1 ="131" y1 ="164" x2 ="131" y2 ="186" stroke ="black"/>
<line x1 ="113" y1 ="186" x2 ="113" y2 ="208" stroke ="black"/>
<line x1 ="149" y1 ="186" x2 ="149" y2 ="208" stroke ="black"/>
<line x1 ="84" y1 ="224" x2 ="142" y2 ="224" stroke-width ="2px" stroke ="black"/>
<line x1 ="113" y1 ="208" x2 ="113" y2 ="224" stroke ="black"/>
<line x1 ="85" y1 ="224" x2 ="85" y2 ="240" stroke ="black"/>
<line x1 ="141" y1 ="224" x2 ="141" y2 ="240" stroke ="black"/>
<line x1 ="74" y1 ="251" x2 ="96" y2 ="251" stroke-width ="2px" stroke ="black"/>
<line x1 ="85" y1 ="240" x2 ="85" y2 ="251" stroke ="black"/>
<line x1 ="75" y1 ="251" x2 ="75" y2 ="262" stroke ="black"/>
<line x1 ="95" y1 ="251" x2 ="95" y2 ="262" stroke ="black"/>
<line x1 ="68" y1 ="270" x2 ="82" y2 ="270" stroke-width ="2px" stroke ="black"/>
<line x1 ="75" y1 ="262" x2 ="75" y2 ="270" stroke ="black"/>
<line x1 ="69" y1 ="270" x2 ="69" y2 ="278" stroke ="black"/>
<line x1 ="81" y1 ="270" x2 ="81" y2 ="278" stroke ="black"/>
<circle cx ="69" cy ="283" r ="5" fill ="black"/>
<circle cx ="81" cy ="283" r ="5" fill ="black"/>
<circle cx ="95" cy ="270" r ="8" fill ="black"/>
<line x1 ="130" y1 ="251" x2 ="152" y2 ="251" stroke-width ="2px" stroke ="black"/>
<line x1 ="141" y1 ="240" x2 ="141" y2 ="251" stroke ="black"/>
<line x1 ="131" y1 ="251" x2 ="131" y2 ="262" stroke ="black"/>
<line x1 ="151" y1 ="251" x2 ="151" y2 ="262" stroke ="black"/>
<circle cx ="131" cy ="270" r ="8" fill ="black"/>
<line x1 ="143" y1 ="270" x2 ="159" y2 ="270" stroke-width ="2px" stroke ="black"/>
<line x1 ="151" y1 ="262" x2 ="151" y2 ="270" stroke ="black"/>
<line x1 ="144" y1 ="270" x2 ="144" y2 ="278" stroke ="black"/>
<line x1 ="158" y1 ="270" x2 ="158" y2 ="278" stroke ="black"/>
<line x1 ="138" y1 ="283" x2 ="150" y2 ="283" stroke-width ="2px" stroke ="black"/>
<line x1 ="144" y1 ="278" x2 ="144" y2 ="283" stroke ="black"/>
<line x1 ="139" y1 ="283" x2 ="139" y2 ="288" stroke ="black"/>
<line x1 ="149" y1 ="283" x2 ="149" y2 ="288" stroke ="black"/>
<circle cx ="139" cy ="292" r ="4" fill ="black"/>
<circle cx ="149" cy ="292" r ="4" fill ="black"/>
<circle cx ="158" cy ="283" r ="5" fill ="black"/>
<circle cx ="149" cy ="224" r ="16" fill ="black"/>
</svg>
